<svg id="Layer_1" xmlns="http://www.w3.org/2000/svg" width="512" height="512" viewBox="0 0 512 512"><path d="M32 0v512M64 0v512M96 0v512M128 0v512M160 0v512M192 0v512M224 0v512M256 0v512M288 0v512M320 0v512M352 0v512M384 0v512M416 0v512M448 0v512M480 0v512M0 32h512M0 64h512M0 96h512M0 128h512M0 160h512M0 192h512M0 224h512M0 256h512M0 288h512M0 320h512M0 352h512M0 384h512M0 416h512M0 448h512M0 480h512M0 0h512v512H0z" id="svgGrid" fill="none" stroke="#B35047"/><path d="M192 128h-79.1c2.4-2.6 4.8-5.2 7.3-7.8C156.5 84 204.7 64 256 64c51.3 0 99.5 20 135.8 56.2C428 156.5 448 204.7 448 256h64C512 114.6 397.4 0 256 0 179.5 0 110.9 33.5 64 86.7V0H0v192h192v-64zm128 256h79.1c-2.4 2.6-4.8 5.2-7.3 7.8C355.5 428 307.3 448 256 448s-99.5-20-135.8-56.2C84 355.5 64 307.3 64 256H0c0 141.4 114.6 256 256 256 76.5 0 145.1-33.5 192-86.7V512h64V320H320v64z"/></svg>