<svg id="Layer_3" xmlns="http://www.w3.org/2000/svg" width="512" height="512" viewBox="0 0 512 512"><path d="M32 0v512M64 0v512M96 0v512M128 0v512M160 0v512M192 0v512M224 0v512M256 0v512M288 0v512M320 0v512M352 0v512M384 0v512M416 0v512M448 0v512M480 0v512M0 32h512M0 64h512M0 96h512M0 128h512M0 160h512M0 192h512M0 224h512M0 256h512M0 288h512M0 320h512M0 352h512M0 384h512M0 416h512M0 448h512M0 480h512M0 0h512v512H0z" id="svgGrid" fill="none" stroke="#B35047"/><path d="M256.001 336C238.331 336 224 350.326 224 367.992 224 385.669 238.331 400 256.001 400 273.674 400 288 385.669 288 367.992 288 350.326 273.674 336 256.001 336zM256 0C114.615 0 0 114.615 0 256c0 141.384 114.615 256 256 256s256-114.616 256-256C512 114.615 397.385 0 256 0zm135.765 391.764C355.5 428.028 307.285 448 256 448c-51.285 0-99.5-19.972-135.765-56.236C83.972 355.5 64 307.285 64 256c0-51.285 19.972-99.5 56.235-135.765C156.5 83.972 204.715 64 256 64c51.285 0 99.5 19.972 135.765 56.235C428.028 156.5 448 204.715 448 256c0 51.284-19.972 99.5-56.235 135.764zM253.649 120.15c-71.924 0-88.31 54.227-89.649 92.996h50.271c.883-8.187 3.227-45.365 39.075-45.365 21.514 0 38.577 13.005 38.577 37.591 0 22.24-23.158 36.945-41.69 54.75-18.53 17.801-20.858 38.277-20.858 54.237V320h51.687v-5.641c0-40.185 62.938-51.009 62.938-113.318 0-39.146-28.022-80.891-90.351-80.891z"/></svg>