<svg id="Layer_3" xmlns="http://www.w3.org/2000/svg" width="512" height="512" viewBox="0 0 512 512"><path d="M32 0v512M64 0v512M96 0v512M128 0v512M160 0v512M192 0v512M224 0v512M256 0v512M288 0v512M320 0v512M352 0v512M384 0v512M416 0v512M448 0v512M480 0v512M0 32h512M0 64h512M0 96h512M0 128h512M0 160h512M0 192h512M0 224h512M0 256h512M0 288h512M0 320h512M0 352h512M0 384h512M0 416h512M0 448h512M0 480h512M0 0h512v512H0z" id="svgGrid" fill="none" stroke="#B35047"/><path d="M224 384h64V224h-64v160zm32-256c-17.673 0-32 14.327-32 32s14.327 32 32 32c17.674 0 32-14.327 32-32s-14.326-32-32-32zm0-128C114.615 0 0 114.615 0 256c0 141.384 114.615 256 256 256s256-114.616 256-256C512 114.615 397.385 0 256 0zm135.765 391.764C355.5 428.028 307.285 448 256 448s-99.5-19.972-135.765-56.236C83.972 355.5 64 307.285 64 256s19.972-99.5 56.235-135.765C156.5 83.972 204.715 64 256 64s99.5 19.972 135.765 56.235C428.028 156.5 448 204.715 448 256c0 51.284-19.972 99.5-56.235 135.764z"/></svg>