<svg id="Layer_1" xmlns="http://www.w3.org/2000/svg" width="512" height="512" viewBox="0 0 512 512"><path d="M32 0v512M64 0v512M96 0v512M128 0v512M160 0v512M192 0v512M224 0v512M256 0v512M288 0v512M320 0v512M352 0v512M384 0v512M416 0v512M448 0v512M480 0v512M0 32h512M0 64h512M0 96h512M0 128h512M0 160h512M0 192h512M0 224h512M0 256h512M0 288h512M0 320h512M0 352h512M0 384h512M0 416h512M0 448h512M0 480h512M0 0h512v512H0z" id="svgGrid" fill="none" stroke="#B35047"/><path d="M296.6 96h-81.3l-10.2 8h101.6l-10.1-8zm-60.7 64H134.1l-10.2 8h101.9l10.1-8zm40.4-80h-40.6l-10.2 8h60.9l-10.1-8zm61 48H174.7l-10.2 8h182.8l-10-8zm-20.4-16H195.1l-10.2 8h142.2l-10.2-8zM256 64l-10.2 8h20.3L256 64zm111.7 88l-10.2-8H256l10 8h101.7zM256 144H154.4l-10.2 8H246l10-8zm50.2 40h99l1.4-1.4-8.4-6.6h-102l10 8zm-20.1-16H388l-10.2-8H276.1l10 8zm95.2 40h-44.9l10 8h26.8l8.1-8zm-24.8 16l4.9 3.9 3.9-3.9h-8.8zm-150.7-40l10-8h-102l-8.4 6.6 1.4 1.4h99zm191.5 8h-81l10 8h62.9l8.1-8zm-221.7 16h-44.9l8 8h26.8l10.1-8zm-28.9 16l3.9 3.9 4.9-3.9h-8.8zm49-32h-81l8 8h62.9l10.1-8zM256 368l-105.4-83.9-45.3 45.3L256 448l150.6-118.6-45.3-45.3L256 368z"/></svg>