<svg width="512" height="512" viewBox="0 0 512 512" xmlns="http://www.w3.org/2000/svg"><g class="svgGrid" id="svgGrid" stroke="#B35047"><path d="M32 0v512M64 0v512M96 0v512M128 0v512M160 0v512M192 0v512M224 0v512M256 0v512M288 0v512M320 0v512M352 0v512M384 0v512M416 0v512M448 0v512M480 0v512M0 32h512M0 64h512M0 96h512M0 128h512M0 160h512M0 192h512M0 224h512M0 256h512M0 288h512M0 320h512M0 352h512M0 384h512M0 416h512M0 448h512M0 480h512"/><path fill="none" d="M0 0h512v512H0z"/></g><path d="M512 198.525l-176.89-25.704L256 12.53l-79.108 160.291L0 198.525l128 124.769L97.784 499.47 256 416.291l158.216 83.179-30.217-176.176L512 198.525z"/></svg>